<?xml version="1.0" encoding="UTF-8"?><svg id="_レイヤー_2" xmlns="http://www.w3.org/2000/svg" viewBox="0 0 34.96 35.89"><defs><style>.cls-1{fill:#9f2fb7;}</style></defs><g id="Layer_2"><g><path class="cls-1" d="M24.44,0H10.52C4.72,0,0,4.72,0,10.52v14.84c0,5.8,4.72,10.52,10.52,10.52h13.91c5.8,0,10.52-4.72,10.52-10.52V10.52c0-5.8-4.72-10.52-10.52-10.52Zm6.72,25.37c0,3.71-3.02,6.72-6.72,6.72H10.52c-3.71,0-6.72-3.02-6.72-6.72V10.52c0-3.71,3.02-6.72,6.72-6.72h13.91c3.71,0,6.72,3.02,6.72,6.72v14.84Z"/><path class="cls-1" d="M17.55,7.93c-2.61-.08-5.09,.9-6.99,2.74-1.94,1.89-3.05,4.52-3.05,7.23,0,5.5,4.47,9.97,9.97,9.97,2.66,0,5.15-1.04,7.02-2.93,1.84-1.86,2.89-4.34,2.95-6.99h0c.06-2.77-.8-5.18-2.49-6.99-1.78-1.9-4.34-2.95-7.42-3.04Zm5.26,9.92c-.07,3.02-2.41,5.38-5.33,5.38s-5.33-2.39-5.33-5.33c0-1.46,.6-2.88,1.65-3.9,.95-.93,2.18-1.43,3.47-1.43,.05,0,.1,0,.14,0,3.5,.1,5.47,2.03,5.4,5.28Z"/><circle class="cls-1" cx="26.9" cy="8.44" r="2.15"/></g></g></svg>