<?xml version="1.0" encoding="utf-8"?>
<!-- Generator: Adobe Illustrator 26.3.1, SVG Export Plug-In . SVG Version: 6.00 Build 0)  -->
<svg version="1.1" id="Layer_1" xmlns="http://www.w3.org/2000/svg" xmlns:xlink="http://www.w3.org/1999/xlink" x="0px" y="0px"
	 viewBox="0 0 31.46 36" style="enable-background:new 0 0 31.46 36;" xml:space="preserve">
<style type="text/css">
	.st0{fill:#AC21BC;}
</style>
<path class="st0" d="M31.39,8.77c0-0.16,0-0.17-0.17-0.17C30.8,8.6,30.4,8.55,30,8.49c-1.46-0.22-6.2-2.71-7.01-6.78
	C22.97,1.64,22.8,0.63,22.8,0.2C22.8,0,22.8,0,22.61,0c-0.04,0-0.09,0-0.13,0c-1.86,0-3.71,0-5.57,0c-0.37,0-0.32-0.05-0.32,0.33
	c0,8.05,0,16.09,0,24.14c0,0.3-0.01,0.6-0.06,0.89c-0.28,1.56-1.08,2.78-2.43,3.61c-1.17,0.72-2.44,0.93-3.79,0.66
	c-0.42-0.08-0.82-0.24-1.22-0.4c-0.03-0.03-0.06-0.06-0.1-0.09c-0.13-0.11-0.28-0.21-0.43-0.3C6.85,27.65,6.03,26,6.28,23.93
	c0.25-2.1,1.46-3.52,3.44-4.25c0.59-0.22,1.22-0.31,1.85-0.28c0.41,0.02,0.81,0.07,1.21,0.19c0.14,0.04,0.21-0.01,0.22-0.15
	c0-0.05,0-0.1,0-0.15c0-1.44-0.05-4.6-0.06-4.61c0-0.42,0-0.83,0.01-1.25c0-0.12-0.06-0.14-0.16-0.15c-0.75-0.09-1.5-0.11-2.25-0.05
	c-1.04,0.08-2.05,0.29-3.03,0.64c-1.56,0.56-2.93,1.43-4.12,2.59c-1.02,1-1.82,2.15-2.4,3.45c-0.56,1.24-0.88,2.55-0.97,3.91
	c-0.04,0.59-0.03,1.18,0.02,1.77c0.08,0.82,0.23,1.62,0.48,2.4c0.71,2.24,2.01,4.08,3.85,5.54c0.19,0.15,0.37,0.31,0.59,0.41
	c0,0,0,0,0,0c0.09,0.08,0.19,0.17,0.28,0.25c0.3,0.22,0.62,0.42,0.95,0.58c2.06,1.02,4.23,1.43,6.52,1.15
	c2.97-0.36,5.45-1.68,7.4-3.95c1.83-2.14,2.73-4.64,2.74-7.44c0.02-4.01,0.01-8.02,0.01-12.02c0-0.1-0.06-0.23,0.05-0.28
	c0.08-0.04,0.17,0.07,0.24,0.12c1.49,0.98,3.1,1.69,4.84,2.09c1.01,0.23,2.04,0.37,3.08,0.37c0.33,0,0.37-0.02,0.37-0.34
	C31.46,13.03,31.39,9.14,31.39,8.77z"/>
</svg>
