<?xml version="1.0" encoding="UTF-8"?><svg id="_レイヤー_2" xmlns="http://www.w3.org/2000/svg" viewBox="0 0 44.3 36"><defs><style>.cls-1{fill:#9f2fb7;}</style></defs><g id="Layer_2"><path class="cls-1" d="M13.93,36c16.72,0,25.86-13.85,25.86-25.86,0-.39,0-.79-.03-1.17,1.77-1.28,3.32-2.88,4.53-4.71-1.63,.72-3.38,1.21-5.22,1.43,1.88-1.12,3.32-2.91,4-5.03-1.76,1.04-3.7,1.8-5.77,2.21-1.66-1.77-4.02-2.87-6.63-2.87-5.02,0-9.09,4.07-9.09,9.09,0,.71,.08,1.41,.24,2.07C14.26,10.78,7.56,7.16,3.08,1.66c-.78,1.34-1.23,2.9-1.23,4.57,0,3.15,1.6,5.94,4.04,7.56-1.49-.05-2.89-.46-4.12-1.14,0,.04,0,.08,0,.12,0,4.4,3.13,8.08,7.29,8.91-.76,.21-1.57,.32-2.4,.32-.59,0-1.15-.06-1.71-.16,1.16,3.61,4.51,6.24,8.49,6.31-3.11,2.44-7.03,3.89-11.29,3.89-.73,0-1.46-.04-2.17-.13,4.02,2.58,8.8,4.08,13.93,4.08"/></g></svg>